<svg width="1349" height="661" xmlns="http://www.w3.org/2000/svg"><g><path d="M2,-72L-73,88L-17,100Z" fill="#f7f7f7" stroke="#f7f7f7"/><path d="M2,-72L-17,100L98,16Z" fill="#f5f5f5" stroke="#f5f5f5"/><path d="M2,-72L98,16L94,-78Z" fill="#f4f4f4" stroke="#f4f4f4"/><path d="M94,-78L98,16L110,-71Z" fill="#f2f2f2" stroke="#f2f2f2"/><path d="M94,-78L110,-71L232,-65Z" fill="#f0f0f0" stroke="#f0f0f0"/><path d="M94,-78L232,-65L465,-86Z" fill="#e9e9e9" stroke="#e9e9e9"/><path d="M94,-78L465,-86L880,-101Z" fill="#dbdbdb" stroke="#dbdbdb"/><path d="M110,-71L98,16L232,-65Z" fill="#efefef" stroke="#efefef"/><path d="M232,-65L98,16L283,82Z" fill="#ececec" stroke="#ececec"/><path d="M232,-65L283,82L323,-65Z" fill="#e8e8e8" stroke="#e8e8e8"/><path d="M232,-65L323,-65L465,-86Z" fill="#e4e4e4" stroke="#e4e4e4"/><path d="M323,-65L283,82L387,56Z" fill="#e3e3e3" stroke="#e3e3e3"/><path d="M323,-65L387,56L465,-86Z" fill="#e2e2e2" stroke="#e2e2e2"/><path d="M465,-86L387,56L471,42Z" fill="#dedede" stroke="#dedede"/><path d="M465,-86L471,42L513,18Z" fill="#dbdbdb" stroke="#dbdbdb"/><path d="M465,-86L513,18L579,-51Z" fill="#d7d7d7" stroke="#d7d7d7"/><path d="M465,-86L579,-51L880,-101Z" fill="#cbcbcb" stroke="#cbcbcb"/><path d="M579,-51L513,18L669,70Z" fill="#d0d0d0" stroke="#d0d0d0"/><path d="M579,-51L669,70L663,-31Z" fill="#cccccc" stroke="#cccccc"/><path d="M579,-51L663,-31L880,-101Z" fill="#c4c4c4" stroke="#c4c4c4"/><path d="M663,-31L669,70L750,-28Z" fill="#c6c6c6" stroke="#c6c6c6"/><path d="M663,-31L750,-28L880,-101Z" fill="#bfbfbf" stroke="#bfbfbf"/><path d="M750,-28L669,70L794,30Z" fill="#c0c0c0" stroke="#c0c0c0"/><path d="M750,-28L794,30L880,-101Z" fill="#bababa" stroke="#bababa"/><path d="M880,-101L794,30L896,37Z" fill="#b6b6b6" stroke="#b6b6b6"/><path d="M880,-101L896,37L941,-30Z" fill="#b1b1b1" stroke="#b1b1b1"/><path d="M880,-101L941,-30L1025,-54Z" fill="#acacac" stroke="#acacac"/><path d="M880,-101L1025,-54L1183,-56Z" fill="#a4a4a4" stroke="#a4a4a4"/><path d="M880,-101L1183,-56L1391,-98Z" fill="#989898" stroke="#989898"/><path d="M941,-30L896,37L1009,92Z" fill="#aaaaaa" stroke="#aaaaaa"/><path d="M941,-30L1009,92L1025,-54Z" fill="#a8a8a8" stroke="#a8a8a8"/><path d="M1025,-54L1009,92L1107,24Z" fill="#a1a1a1" stroke="#a1a1a1"/><path d="M1025,-54L1107,24L1183,-56Z" fill="#9d9d9d" stroke="#9d9d9d"/><path d="M1183,-56L1107,24L1222,-13Z" fill="#969696" stroke="#969696"/><path d="M1183,-56L1222,-13L1391,-98Z" fill="#8d8d8d" stroke="#8d8d8d"/><path d="M1222,-13L1107,24L1214,72Z" fill="#939393" stroke="#939393"/><path d="M1222,-13L1214,72L1374,75Z" fill="#898989" stroke="#898989"/><path d="M1222,-13L1374,75L1391,-98Z" fill="#868686" stroke="#868686"/><path d="M1391,-98L1374,75L1421,27Z" fill="#808080" stroke="#808080"/><path d="M1391,-98L1421,27L1463,-87Z" fill="#808080" stroke="#808080"/><path d="M1463,-87L1421,27L1474,97Z" fill="#7f7f7f" stroke="#7f7f7f"/><path d="M1463,-87L1474,97L1505,415Z" fill="#767676" stroke="#767676"/><path d="M-73,88L-76,556L-31,443Z" fill="#cacaca" stroke="#cacaca"/><path d="M-73,88L-31,443L-16,362Z" fill="#d8d8d8" stroke="#d8d8d8"/><path d="M-73,88L-16,362L-4,216Z" fill="#eaeaea" stroke="#eaeaea"/><path d="M-73,88L-4,216L-17,100Z" fill="#f1f1f1" stroke="#f1f1f1"/><path d="M98,16L-17,100L113,92Z" fill="#f0f0f0" stroke="#f0f0f0"/><path d="M98,16L113,92L283,82Z" fill="#eaeaea" stroke="#eaeaea"/><path d="M113,92L-17,100L95,154Z" fill="#ececec" stroke="#ececec"/><path d="M113,92L95,154L166,154Z" fill="#e8e8e8" stroke="#e8e8e8"/><path d="M113,92L166,154L283,82Z" fill="#e6e6e6" stroke="#e6e6e6"/><path d="M283,82L166,154L258,192Z" fill="#e1e1e1" stroke="#e1e1e1"/><path d="M283,82L258,192L366,152Z" fill="#dddddd" stroke="#dddddd"/><path d="M283,82L366,152L387,56Z" fill="#dedede" stroke="#dedede"/><path d="M387,56L366,152L403,162Z" fill="#d9d9d9" stroke="#d9d9d9"/><path d="M387,56L403,162L471,42Z" fill="#dadada" stroke="#dadada"/><path d="M471,42L403,162L580,157Z" fill="#d3d3d3" stroke="#d3d3d3"/><path d="M471,42L580,157L513,18Z" fill="#d2d2d2" stroke="#d2d2d2"/><path d="M513,18L580,157L669,70Z" fill="#cbcbcb" stroke="#cbcbcb"/><path d="M669,70L580,157L651,141Z" fill="#c3c3c3" stroke="#c3c3c3"/><path d="M669,70L651,141L710,165Z" fill="#bfbfbf" stroke="#bfbfbf"/><path d="M669,70L710,165L794,30Z" fill="#bdbdbd" stroke="#bdbdbd"/><path d="M794,30L710,165L840,171Z" fill="#b5b5b5" stroke="#b5b5b5"/><path d="M794,30L840,171L879,79Z" fill="#b1b1b1" stroke="#b1b1b1"/><path d="M794,30L879,79L896,37Z" fill="#b2b2b2" stroke="#b2b2b2"/><path d="M879,79L840,171L997,150Z" fill="#a8a8a8" stroke="#a8a8a8"/><path d="M879,79L997,150L1009,92Z" fill="#a4a4a4" stroke="#a4a4a4"/><path d="M879,79L1009,92L896,37Z" fill="#aaaaaa" stroke="#aaaaaa"/><path d="M1009,92L997,150L1055,152Z" fill="#9c9c9c" stroke="#9c9c9c"/><path d="M1009,92L1055,152L1107,24Z" fill="#9b9b9b" stroke="#9b9b9b"/><path d="M1107,24L1055,152L1142,191Z" fill="#959595" stroke="#959595"/><path d="M1107,24L1142,191L1214,72Z" fill="#919191" stroke="#919191"/><path d="M1214,72L1142,191L1262,176Z" fill="#898989" stroke="#898989"/><path d="M1214,72L1262,176L1374,75Z" fill="#838383" stroke="#838383"/><path d="M1374,75L1262,176L1343,203Z" fill="#7c7c7c" stroke="#7c7c7c"/><path d="M1374,75L1343,203L1474,97Z" fill="#777777" stroke="#777777"/><path d="M1374,75L1474,97L1421,27Z" fill="#7b7b7b" stroke="#7b7b7b"/><path d="M-17,100L-4,216L95,154Z" fill="#ececec" stroke="#ececec"/><path d="M95,154L-4,216L60,271Z" fill="#e6e6e6" stroke="#e6e6e6"/><path d="M95,154L60,271L188,231Z" fill="#e2e2e2" stroke="#e2e2e2"/><path d="M95,154L188,231L166,154Z" fill="#e3e3e3" stroke="#e3e3e3"/><path d="M166,154L188,231L258,192Z" fill="#dfdfdf" stroke="#dfdfdf"/><path d="M258,192L188,231L288,302Z" fill="#d6d6d6" stroke="#d6d6d6"/><path d="M258,192L288,302L364,246Z" fill="#d1d1d1" stroke="#d1d1d1"/><path d="M258,192L364,246L366,152Z" fill="#d8d8d8" stroke="#d8d8d8"/><path d="M366,152L364,246L403,162Z" fill="#d6d6d6" stroke="#d6d6d6"/><path d="M403,162L364,246L451,226Z" fill="#d2d2d2" stroke="#d2d2d2"/><path d="M403,162L451,226L563,199Z" fill="#cecece" stroke="#cecece"/><path d="M403,162L563,199L580,157Z" fill="#cccccc" stroke="#cccccc"/><path d="M580,157L563,199L651,141Z" fill="#c4c4c4" stroke="#c4c4c4"/><path d="M651,141L563,199L601,276Z" fill="#c1c1c1" stroke="#c1c1c1"/><path d="M651,141L601,276L710,165Z" fill="#bdbdbd" stroke="#bdbdbd"/><path d="M710,165L601,276L700,302Z" fill="#b3b3b3" stroke="#b3b3b3"/><path d="M710,165L700,302L717,309Z" fill="#acacac" stroke="#acacac"/><path d="M710,165L717,309L809,295Z" fill="#a9a9a9" stroke="#a9a9a9"/><path d="M710,165L809,295L840,171Z" fill="#aeaeae" stroke="#aeaeae"/><path d="M840,171L809,295L851,301Z" fill="#a0a0a0" stroke="#a0a0a0"/><path d="M840,171L851,301L904,255Z" fill="#a0a0a0" stroke="#a0a0a0"/><path d="M840,171L904,255L997,150Z" fill="#a3a3a3" stroke="#a3a3a3"/><path d="M997,150L904,255L1037,314Z" fill="#969696" stroke="#969696"/><path d="M997,150L1037,314L1085,198Z" fill="#949494" stroke="#949494"/><path d="M997,150L1085,198L1055,152Z" fill="#979797" stroke="#979797"/><path d="M1055,152L1085,198L1142,191Z" fill="#919191" stroke="#919191"/><path d="M1142,191L1085,198L1112,206Z" fill="#8e8e8e" stroke="#8e8e8e"/><path d="M1142,191L1112,206L1183,302Z" fill="#878787" stroke="#878787"/><path d="M1142,191L1183,302L1204,304Z" fill="#7c7c7c" stroke="#7c7c7c"/><path d="M1142,191L1204,304L1262,176Z" fill="#838383" stroke="#838383"/><path d="M1262,176L1204,304L1255,304Z" fill="#767676" stroke="#767676"/><path d="M1262,176L1255,304L1343,203Z" fill="#797979" stroke="#797979"/><path d="M1343,203L1255,304L1309,320Z" fill="#6c6c6c" stroke="#6c6c6c"/><path d="M1343,203L1309,320L1387,301Z" fill="#696969" stroke="#696969"/><path d="M1343,203L1387,301L1465,279Z" fill="#676767" stroke="#676767"/><path d="M1343,203L1465,279L1474,97Z" fill="#737373" stroke="#737373"/><path d="M1474,97L1465,279L1505,415Z" fill="#666666" stroke="#666666"/><path d="M-4,216L-16,362L60,271Z" fill="#d9d9d9" stroke="#d9d9d9"/><path d="M60,271L-16,362L84,351Z" fill="#cccccc" stroke="#cccccc"/><path d="M60,271L84,351L188,231Z" fill="#d3d3d3" stroke="#d3d3d3"/><path d="M188,231L84,351L162,380Z" fill="#c8c8c8" stroke="#c8c8c8"/><path d="M188,231L162,380L282,318Z" fill="#c7c7c7" stroke="#c7c7c7"/><path d="M188,231L282,318L288,302Z" fill="#cbcbcb" stroke="#cbcbcb"/><path d="M288,302L282,318L367,301Z" fill="#c2c2c2" stroke="#c2c2c2"/><path d="M288,302L367,301L364,246Z" fill="#c6c6c6" stroke="#c6c6c6"/><path d="M364,246L367,301L451,226Z" fill="#c9c9c9" stroke="#c9c9c9"/><path d="M451,226L367,301L435,356Z" fill="#bfbfbf" stroke="#bfbfbf"/><path d="M451,226L435,356L514,369Z" fill="#b6b6b6" stroke="#b6b6b6"/><path d="M451,226L514,369L601,276Z" fill="#b7b7b7" stroke="#b7b7b7"/><path d="M451,226L601,276L563,199Z" fill="#c3c3c3" stroke="#c3c3c3"/><path d="M601,276L514,369L605,378Z" fill="#a5a5a5" stroke="#a5a5a5"/><path d="M601,276L605,378L700,302Z" fill="#a5a5a5" stroke="#a5a5a5"/><path d="M700,302L605,378L620,405Z" fill="#9a9a9a" stroke="#9a9a9a"/><path d="M700,302L620,405L717,309Z" fill="#9c9c9c" stroke="#9c9c9c"/><path d="M809,295L717,309L835,399Z" fill="#929292" stroke="#929292"/><path d="M809,295L835,399L851,301Z" fill="#8e8e8e" stroke="#8e8e8e"/><path d="M904,255L851,301L978,399Z" fill="#898989" stroke="#898989"/><path d="M904,255L978,399L1037,314Z" fill="#828282" stroke="#828282"/><path d="M1085,198L1037,314L1112,206Z" fill="#8c8c8c" stroke="#8c8c8c"/><path d="M1112,206L1037,314L1183,302Z" fill="#808080" stroke="#808080"/><path d="M1204,304L1183,302L1114,432Z" fill="#696969" stroke="#696969"/><path d="M1204,304L1114,432L1281,469Z" fill="#585858" stroke="#585858"/><path d="M1204,304L1281,469L1255,304Z" fill="#5e5e5e" stroke="#5e5e5e"/><path d="M1387,301L1309,320L1420,339Z" fill="#5b5b5b" stroke="#5b5b5b"/><path d="M1387,301L1420,339L1465,279Z" fill="#5c5c5c" stroke="#5c5c5c"/><path d="M1465,279L1420,339L1505,415Z" fill="#535353" stroke="#535353"/><path d="M-16,362L-31,443L95,434Z" fill="#b9b9b9" stroke="#b9b9b9"/><path d="M-16,362L95,434L84,351Z" fill="#bebebe" stroke="#bebebe"/><path d="M84,351L95,434L162,380Z" fill="#b9b9b9" stroke="#b9b9b9"/><path d="M162,380L95,434L130,450Z" fill="#b0b0b0" stroke="#b0b0b0"/><path d="M162,380L130,450L211,397Z" fill="#b1b1b1" stroke="#b1b1b1"/><path d="M162,380L211,397L282,318Z" fill="#b9b9b9" stroke="#b9b9b9"/><path d="M282,318L211,397L312,496Z" fill="#adadad" stroke="#adadad"/><path d="M282,318L312,496L367,301Z" fill="#b2b2b2" stroke="#b2b2b2"/><path d="M367,301L312,496L435,356Z" fill="#acacac" stroke="#acacac"/><path d="M435,356L312,496L452,497Z" fill="#9b9b9b" stroke="#9b9b9b"/><path d="M435,356L452,497L514,369Z" fill="#a0a0a0" stroke="#a0a0a0"/><path d="M514,369L452,497L562,453Z" fill="#949494" stroke="#949494"/><path d="M514,369L562,453L605,378Z" fill="#999999" stroke="#999999"/><path d="M605,378L562,453L620,405Z" fill="#929292" stroke="#929292"/><path d="M717,309L620,405L783,481Z" fill="#8b8b8b" stroke="#8b8b8b"/><path d="M717,309L783,481L835,399Z" fill="#848484" stroke="#848484"/><path d="M851,301L835,399L917,421Z" fill="#808080" stroke="#808080"/><path d="M851,301L917,421L978,399Z" fill="#7c7c7c" stroke="#7c7c7c"/><path d="M978,399L917,421L997,500Z" fill="#666666" stroke="#666666"/><path d="M978,399L997,500L1114,432Z" fill="#5f5f5f" stroke="#5f5f5f"/><path d="M978,399L1114,432L1037,314Z" fill="#6d6d6d" stroke="#6d6d6d"/><path d="M1037,314L1114,432L1183,302Z" fill="#6e6e6e" stroke="#6e6e6e"/><path d="M1255,304L1281,469L1309,320Z" fill="#595959" stroke="#595959"/><path d="M1309,320L1281,469L1386,481Z" fill="#464646" stroke="#464646"/><path d="M1309,320L1386,481L1420,339Z" fill="#4c4c4c" stroke="#4c4c4c"/><path d="M1420,339L1386,481L1505,415Z" fill="#424242" stroke="#424242"/><path d="M-31,443L-76,556L51,539Z" fill="#a3a3a3" stroke="#a3a3a3"/><path d="M-31,443L51,539L95,434Z" fill="#aaaaaa" stroke="#aaaaaa"/><path d="M95,434L51,539L102,506Z" fill="#a2a2a2" stroke="#a2a2a2"/><path d="M95,434L102,506L130,450Z" fill="#a8a8a8" stroke="#a8a8a8"/><path d="M130,450L102,506L208,584Z" fill="#999999" stroke="#999999"/><path d="M130,450L208,584L211,397Z" fill="#a0a0a0" stroke="#a0a0a0"/><path d="M211,397L208,584L312,496Z" fill="#999999" stroke="#999999"/><path d="M312,496L208,584L321,681Z" fill="#808080" stroke="#808080"/><path d="M312,496L321,681L396,543Z" fill="#808080" stroke="#808080"/><path d="M312,496L396,543L452,497Z" fill="#8c8c8c" stroke="#8c8c8c"/><path d="M452,497L396,543L433,541Z" fill="#868686" stroke="#868686"/><path d="M452,497L433,541L529,536Z" fill="#838383" stroke="#838383"/><path d="M452,497L529,536L562,453Z" fill="#868686" stroke="#868686"/><path d="M562,453L529,536L603,541Z" fill="#7d7d7d" stroke="#7d7d7d"/><path d="M562,453L603,541L620,405Z" fill="#858585" stroke="#858585"/><path d="M620,405L603,541L783,481Z" fill="#7b7b7b" stroke="#7b7b7b"/><path d="M783,481L603,541L786,503Z" fill="#6e6e6e" stroke="#6e6e6e"/><path d="M783,481L786,503L917,421Z" fill="#6d6d6d" stroke="#6d6d6d"/><path d="M783,481L917,421L835,399Z" fill="#747474" stroke="#747474"/><path d="M917,421L786,503L946,563Z" fill="#616161" stroke="#616161"/><path d="M917,421L946,563L997,500Z" fill="#5a5a5a" stroke="#5a5a5a"/><path d="M997,500L946,563L1038,596Z" fill="#484848" stroke="#484848"/><path d="M997,500L1038,596L1114,432Z" fill="#4d4d4d" stroke="#4d4d4d"/><path d="M1114,432L1038,596L1187,537Z" fill="#444444" stroke="#444444"/><path d="M1114,432L1187,537L1204,520Z" fill="#444444" stroke="#444444"/><path d="M1114,432L1204,520L1281,469Z" fill="#474747" stroke="#474747"/><path d="M1281,469L1204,520L1213,595Z" fill="#363636" stroke="#363636"/><path d="M1281,469L1213,595L1389,539Z" fill="#2f2f2f" stroke="#2f2f2f"/><path d="M1281,469L1389,539L1386,481Z" fill="#323232" stroke="#323232"/><path d="M1386,481L1389,539L1456,594Z" fill="#242424" stroke="#242424"/><path d="M1386,481L1456,594L1505,415Z" fill="#2e2e2e" stroke="#2e2e2e"/><path d="M1505,415L1456,594L1465,621Z" fill="#222222" stroke="#222222"/><path d="M1505,415L1465,621L1448,744Z" fill="#161616" stroke="#161616"/><path d="M-76,556L-74,754L-34,684Z" fill="#808080" stroke="#808080"/><path d="M-76,556L-34,684L45,614Z" fill="#898989" stroke="#898989"/><path d="M-76,556L45,614L51,539Z" fill="#939393" stroke="#939393"/><path d="M51,539L45,614L103,628Z" fill="#8a8a8a" stroke="#8a8a8a"/><path d="M51,539L103,628L102,506Z" fill="#929292" stroke="#929292"/><path d="M102,506L103,628L208,584Z" fill="#8b8b8b" stroke="#8b8b8b"/><path d="M208,584L103,628L141,728Z" fill="#797979" stroke="#797979"/><path d="M208,584L141,728L255,695Z" fill="#707070" stroke="#707070"/><path d="M208,584L255,695L321,681Z" fill="#717171" stroke="#717171"/><path d="M396,543L321,681L399,698Z" fill="#6e6e6e" stroke="#6e6e6e"/><path d="M396,543L399,698L433,541Z" fill="#777777" stroke="#777777"/><path d="M433,541L399,698L561,665Z" fill="#696969" stroke="#696969"/><path d="M433,541L561,665L529,536Z" fill="#727272" stroke="#727272"/><path d="M529,536L561,665L603,541Z" fill="#6c6c6c" stroke="#6c6c6c"/><path d="M603,541L561,665L674,620Z" fill="#606060" stroke="#606060"/><path d="M603,541L674,620L786,503Z" fill="#666666" stroke="#666666"/><path d="M786,503L674,620L805,598Z" fill="#5b5b5b" stroke="#5b5b5b"/><path d="M786,503L805,598L946,563Z" fill="#575757" stroke="#575757"/><path d="M805,598L674,620L747,646Z" fill="#505050" stroke="#505050"/><path d="M805,598L747,646L829,615Z" fill="#4c4c4c" stroke="#4c4c4c"/><path d="M805,598L829,615L946,563Z" fill="#4c4c4c" stroke="#4c4c4c"/><path d="M946,563L829,615L938,669Z" fill="#424242" stroke="#424242"/><path d="M946,563L938,669L1038,596Z" fill="#3c3c3c" stroke="#3c3c3c"/><path d="M1038,596L938,669L1033,709Z" fill="#2d2d2d" stroke="#2d2d2d"/><path d="M1038,596L1033,709L1088,679Z" fill="#282828" stroke="#282828"/><path d="M1038,596L1088,679L1190,613Z" fill="#2a2a2a" stroke="#2a2a2a"/><path d="M1038,596L1190,613L1187,537Z" fill="#323232" stroke="#323232"/><path d="M1187,537L1190,613L1213,595Z" fill="#2d2d2d" stroke="#2d2d2d"/><path d="M1187,537L1213,595L1204,520Z" fill="#343434" stroke="#343434"/><path d="M1389,539L1213,595L1399,617Z" fill="#1f1f1f" stroke="#1f1f1f"/><path d="M1389,539L1399,617L1456,594Z" fill="#191919" stroke="#191919"/><path d="M1456,594L1399,617L1465,621Z" fill="#121212" stroke="#121212"/><path d="M-34,684L-74,754L6,735Z" fill="#7a7a7a" stroke="#7a7a7a"/><path d="M-34,684L6,735L45,614Z" fill="#797979" stroke="#797979"/><path d="M45,614L6,735L103,628Z" fill="#7b7b7b" stroke="#7b7b7b"/><path d="M103,628L6,735L141,728Z" fill="#747474" stroke="#747474"/><path d="M255,695L141,728L222,785Z" fill="#6d6d6d" stroke="#6d6d6d"/><path d="M255,695L222,785L316,719Z" fill="#696969" stroke="#696969"/><path d="M255,695L316,719L321,681Z" fill="#676767" stroke="#676767"/><path d="M321,681L316,719L399,698Z" fill="#656565" stroke="#656565"/><path d="M399,698L316,719L408,790Z" fill="#636363" stroke="#636363"/><path d="M399,698L408,790L577,760Z" fill="#5e5e5e" stroke="#5e5e5e"/><path d="M399,698L577,760L561,665Z" fill="#585858" stroke="#585858"/><path d="M561,665L577,760L640,786Z" fill="#505050" stroke="#505050"/><path d="M561,665L640,786L674,620Z" fill="#4d4d4d" stroke="#4d4d4d"/><path d="M674,620L640,786L747,646Z" fill="#474747" stroke="#474747"/><path d="M747,646L640,786L779,784Z" fill="#434343" stroke="#434343"/><path d="M747,646L779,784L829,615Z" fill="#3e3e3e" stroke="#3e3e3e"/><path d="M829,615L779,784L872,804Z" fill="#393939" stroke="#393939"/><path d="M829,615L872,804L938,669Z" fill="#343434" stroke="#343434"/><path d="M938,669L872,804L1002,737Z" fill="#2e2e2e" stroke="#2e2e2e"/><path d="M938,669L1002,737L1033,709Z" fill="#292929" stroke="#292929"/><path d="M1088,679L1033,709L1179,709Z" fill="#1e1e1e" stroke="#1e1e1e"/><path d="M1088,679L1179,709L1190,613Z" fill="#1c1c1c" stroke="#1c1c1c"/><path d="M1190,613L1179,709L1233,723Z" fill="#141414" stroke="#141414"/><path d="M1190,613L1233,723L1213,595Z" fill="#1c1c1c" stroke="#1c1c1c"/><path d="M1213,595L1233,723L1319,746Z" fill="#0e0e0e" stroke="#0e0e0e"/><path d="M1213,595L1319,746L1399,617Z" fill="#101010" stroke="#101010"/><path d="M1399,617L1319,746L1448,744Z" fill="#010101" stroke="#010101"/><path d="M1399,617L1448,744L1465,621Z" fill="#060606" stroke="#060606"/><path d="M-74,754L222,785L6,735Z" fill="#757575" stroke="#757575"/><path d="M6,735L222,785L141,728Z" fill="#717171" stroke="#717171"/><path d="M222,785L872,804L408,790Z" fill="#5a5a5a" stroke="#5a5a5a"/><path d="M222,785L408,790L316,719Z" fill="#666666" stroke="#666666"/><path d="M408,790L872,804L640,786Z" fill="#4c4c4c" stroke="#4c4c4c"/><path d="M408,790L640,786L577,760Z" fill="#565656" stroke="#565656"/><path d="M640,786L872,804L779,784Z" fill="#3f3f3f" stroke="#3f3f3f"/><path d="M872,804L1448,744L1319,746Z" fill="#121212" stroke="#121212"/><path d="M872,804L1319,746L1233,723Z" fill="#1a1a1a" stroke="#1a1a1a"/><path d="M872,804L1233,723L1002,737Z" fill="#242424" stroke="#242424"/><path d="M1002,737L1233,723L1179,709Z" fill="#1a1a1a" stroke="#1a1a1a"/><path d="M1002,737L1179,709L1033,709Z" fill="#212121" stroke="#212121"/></g></svg>