<svg width="1349" height="661" xmlns="http://www.w3.org/2000/svg"><g><path d="M-17,-42L-77,8L43,65Z" fill="#fffff2" stroke="#fffff2"/><path d="M-17,-42L43,65L50,-18Z" fill="#ffffef" stroke="#ffffef"/><path d="M-17,-42L50,-18L125,-37Z" fill="#fffeec" stroke="#fffeec"/><path d="M-17,-42L125,-37L300,-78Z" fill="#fffce2" stroke="#fffce2"/><path d="M50,-18L43,65L111,13Z" fill="#fffee6" stroke="#fffee6"/><path d="M50,-18L111,13L125,-37Z" fill="#fffde7" stroke="#fffde7"/><path d="M125,-37L111,13L266,-22Z" fill="#fffbde" stroke="#fffbde"/><path d="M125,-37L266,-22L300,-78Z" fill="#fff8d6" stroke="#fff8d6"/><path d="M266,-22L111,13L244,137Z" fill="#fff9d1" stroke="#fff9d1"/><path d="M266,-22L244,137L302,18Z" fill="#fff5c8" stroke="#fff5c8"/><path d="M266,-22L302,18L342,3Z" fill="#fff3cd" stroke="#fff3cd"/><path d="M266,-22L342,3L300,-78Z" fill="#fff3cd" stroke="#fff3cd"/><path d="M300,-78L342,3L496,4Z" fill="#ffedc0" stroke="#ffedc0"/><path d="M300,-78L496,4L550,-75Z" fill="#ffe7b2" stroke="#ffe7b2"/><path d="M300,-78L550,-75L797,-101Z" fill="#ffdca2" stroke="#ffdca2"/><path d="M496,4L342,3L457,47Z" fill="#ffe9b2" stroke="#ffe9b2"/><path d="M496,4L457,47L494,98Z" fill="#ffe4a2" stroke="#ffe4a2"/><path d="M496,4L494,98L537,104Z" fill="#ffe19a" stroke="#ffe19a"/><path d="M496,4L537,104L597,102Z" fill="#ffdd96" stroke="#ffdd96"/><path d="M496,4L597,102L641,19Z" fill="#ffd997" stroke="#ffd997"/><path d="M496,4L641,19L550,-75Z" fill="#ffdba1" stroke="#ffdba1"/><path d="M550,-75L641,19L651,0Z" fill="#ffd49b" stroke="#ffd49b"/><path d="M550,-75L651,0L797,-101Z" fill="#ffcd95" stroke="#ffcd95"/><path d="M651,0L641,19L763,41Z" fill="#fecb90" stroke="#fecb90"/><path d="M651,0L763,41L797,-101Z" fill="#fbc590" stroke="#fbc590"/><path d="M797,-101L763,41L824,-84Z" fill="#f8be8d" stroke="#f8be8d"/><path d="M797,-101L824,-84L916,-82Z" fill="#f6b78a" stroke="#f6b78a"/><path d="M797,-101L916,-82L1053,-85Z" fill="#eeaf86" stroke="#eeaf86"/><path d="M824,-84L763,41L839,29Z" fill="#f8bc8c" stroke="#f8bc8c"/><path d="M824,-84L839,29L916,-82Z" fill="#f4b689" stroke="#f4b689"/><path d="M916,-82L839,29L973,58Z" fill="#efb186" stroke="#efb186"/><path d="M916,-82L973,58L1053,-85Z" fill="#e9a982" stroke="#e9a982"/><path d="M1053,-85L973,58L1097,42Z" fill="#e0a380" stroke="#e0a380"/><path d="M1053,-85L1097,42L1144,-52Z" fill="#d59e81" stroke="#d59e81"/><path d="M1053,-85L1144,-52L1291,-37Z" fill="#c99882" stroke="#c99882"/><path d="M1053,-85L1291,-37L1398,-29Z" fill="#b99082" stroke="#b99082"/><path d="M1144,-52L1097,42L1170,27Z" fill="#ce9a80" stroke="#ce9a80"/><path d="M1144,-52L1170,27L1256,5Z" fill="#c49582" stroke="#c49582"/><path d="M1144,-52L1256,5L1291,-37Z" fill="#bc9282" stroke="#bc9282"/><path d="M1291,-37L1256,5L1324,73Z" fill="#b18c80" stroke="#b18c80"/><path d="M1291,-37L1324,73L1367,-29Z" fill="#aa8982" stroke="#aa8982"/><path d="M1291,-37L1367,-29L1398,-29Z" fill="#a58683" stroke="#a58683"/><path d="M1367,-29L1324,73L1398,-29Z" fill="#a38582" stroke="#a38582"/><path d="M1398,-29L1324,73L1487,30Z" fill="#9c827f" stroke="#9c827f"/><path d="M-77,8L-91,329L-32,124Z" fill="#ffffd5" stroke="#ffffd5"/><path d="M-77,8L-32,124L43,65Z" fill="#ffffe8" stroke="#ffffe8"/><path d="M43,65L-32,124L80,180Z" fill="#ffffd3" stroke="#ffffd3"/><path d="M43,65L80,180L111,13Z" fill="#fffdd8" stroke="#fffdd8"/><path d="M111,13L80,180L168,190Z" fill="#fffcc6" stroke="#fffcc6"/><path d="M111,13L168,190L244,137Z" fill="#fffbc4" stroke="#fffbc4"/><path d="M302,18L244,137L383,160Z" fill="#fff3b5" stroke="#fff3b5"/><path d="M302,18L383,160L342,3Z" fill="#fff1bc" stroke="#fff1bc"/><path d="M342,3L383,160L457,47Z" fill="#ffecb0" stroke="#ffecb0"/><path d="M457,47L383,160L494,98Z" fill="#ffe79e" stroke="#ffe79e"/><path d="M597,102L537,104L635,133Z" fill="#ffd785" stroke="#ffd785"/><path d="M597,102L635,133L641,19Z" fill="#ffd38a" stroke="#ffd38a"/><path d="M641,19L635,133L763,41Z" fill="#fecc88" stroke="#fecc88"/><path d="M763,41L635,133L786,122Z" fill="#fcc67c" stroke="#fcc67c"/><path d="M763,41L786,122L839,29Z" fill="#f8bd81" stroke="#f8bd81"/><path d="M839,29L786,122L827,159Z" fill="#f7bb75" stroke="#f7bb75"/><path d="M839,29L827,159L927,169Z" fill="#f4b56e" stroke="#f4b56e"/><path d="M839,29L927,169L973,58Z" fill="#efb076" stroke="#efb076"/><path d="M973,58L927,169L1064,140Z" fill="#e8a866" stroke="#e8a866"/><path d="M973,58L1064,140L1097,42Z" fill="#e0a372" stroke="#e0a372"/><path d="M1097,42L1064,140L1178,189Z" fill="#d39c65" stroke="#d39c65"/><path d="M1097,42L1178,189L1170,27Z" fill="#cc9971" stroke="#cc9971"/><path d="M1170,27L1178,189L1260,158Z" fill="#c29465" stroke="#c29465"/><path d="M1170,27L1260,158L1256,5Z" fill="#bd9276" stroke="#bd9276"/><path d="M1256,5L1260,158L1324,73Z" fill="#b38d73" stroke="#b38d73"/><path d="M1324,73L1260,158L1323,177Z" fill="#af8b62" stroke="#af8b62"/><path d="M1324,73L1323,177L1434,153Z" fill="#a48663" stroke="#a48663"/><path d="M1324,73L1434,153L1487,30Z" fill="#998173" stroke="#998173"/><path d="M1487,30L1434,153L1464,252Z" fill="#908060" stroke="#908060"/><path d="M1487,30L1464,252L1500,424Z" fill="#8c7739" stroke="#8c7739"/><path d="M-32,124L-91,329L-4,294Z" fill="#fff4a6" stroke="#fff4a6"/><path d="M-32,124L-4,294L80,180Z" fill="#fffab7" stroke="#fffab7"/><path d="M80,180L-4,294L48,282Z" fill="#fff29c" stroke="#fff29c"/><path d="M80,180L48,282L180,230Z" fill="#fff49d" stroke="#fff49d"/><path d="M80,180L180,230L168,190Z" fill="#fff7a7" stroke="#fff7a7"/><path d="M168,190L180,230L244,137Z" fill="#fff7a7" stroke="#fff7a7"/><path d="M244,137L180,230L302,302Z" fill="#ffef90" stroke="#ffef90"/><path d="M244,137L302,302L303,302Z" fill="#ffea7f" stroke="#ffea7f"/><path d="M244,137L303,302L383,160Z" fill="#ffee92" stroke="#ffee92"/><path d="M383,160L303,302L399,256Z" fill="#ffe677" stroke="#ffe677"/><path d="M383,160L399,256L499,255Z" fill="#ffe272" stroke="#ffe272"/><path d="M383,160L499,255L494,98Z" fill="#ffe685" stroke="#ffe685"/><path d="M494,98L499,255L537,104Z" fill="#ffe182" stroke="#ffe182"/><path d="M537,104L499,255L635,133Z" fill="#ffdb79" stroke="#ffdb79"/><path d="M635,133L499,255L616,300Z" fill="#ffd057" stroke="#ffd057"/><path d="M635,133L616,300L642,297Z" fill="#ffc84b" stroke="#ffc84b"/><path d="M635,133L642,297L757,276Z" fill="#ffc34a" stroke="#ffc34a"/><path d="M635,133L757,276L786,122Z" fill="#fcc463" stroke="#fcc463"/><path d="M786,122L757,276L827,159Z" fill="#f9bc5a" stroke="#f9bc5a"/><path d="M827,159L757,276L855,268Z" fill="#f7b242" stroke="#f7b242"/><path d="M827,159L855,268L915,237Z" fill="#f4ae45" stroke="#f4ae45"/><path d="M827,159L915,237L927,169Z" fill="#f1b053" stroke="#f1b053"/><path d="M927,169L915,237L1070,285Z" fill="#eaa23b" stroke="#eaa23b"/><path d="M927,169L1070,285L1064,140Z" fill="#e4a148" stroke="#e4a148"/><path d="M1064,140L1070,285L1118,200Z" fill="#d89a44" stroke="#d89a44"/><path d="M1064,140L1118,200L1178,189Z" fill="#d19a53" stroke="#d19a53"/><path d="M1178,189L1118,200L1203,268Z" fill="#c8913f" stroke="#c8913f"/><path d="M1178,189L1203,268L1260,158Z" fill="#bf8e46" stroke="#bf8e46"/><path d="M1260,158L1203,268L1323,177Z" fill="#b68a48" stroke="#b68a48"/><path d="M1323,177L1203,268L1376,261Z" fill="#af8238" stroke="#af8238"/><path d="M1323,177L1376,261L1434,153Z" fill="#a0804b" stroke="#a0804b"/><path d="M1434,153L1376,261L1464,252Z" fill="#97793f" stroke="#97793f"/><path d="M-4,294L-91,329L4,326Z" fill="#ffdf93" stroke="#ffdf93"/><path d="M-4,294L4,326L48,282Z" fill="#ffe491" stroke="#ffe491"/><path d="M48,282L4,326L150,403Z" fill="#ffd783" stroke="#ffd783"/><path d="M48,282L150,403L180,230Z" fill="#ffe083" stroke="#ffe083"/><path d="M180,230L150,403L219,373Z" fill="#ffd474" stroke="#ffd474"/><path d="M180,230L219,373L302,302Z" fill="#ffdc76" stroke="#ffdc76"/><path d="M303,302L302,302L342,411Z" fill="#ffcc64" stroke="#ffcc64"/><path d="M303,302L342,411L371,400Z" fill="#ffc15d" stroke="#ffc15d"/><path d="M303,302L371,400L399,256Z" fill="#ffce60" stroke="#ffce60"/><path d="M302,302L219,373L342,411Z" fill="#ffc665" stroke="#ffc665"/><path d="M399,256L371,400L498,393Z" fill="#ffbf4f" stroke="#ffbf4f"/><path d="M399,256L498,393L526,324Z" fill="#ffc248" stroke="#ffc248"/><path d="M399,256L526,324L499,255Z" fill="#ffd154" stroke="#ffd154"/><path d="M499,255L526,324L616,300Z" fill="#ffc446" stroke="#ffc446"/><path d="M642,297L616,300L658,396Z" fill="#ffac31" stroke="#ffac31"/><path d="M642,297L658,396L761,384Z" fill="#fe9e2a" stroke="#fe9e2a"/><path d="M642,297L761,384L757,276Z" fill="#fca62d" stroke="#fca62d"/><path d="M757,276L761,384L798,334Z" fill="#fa9c27" stroke="#fa9c27"/><path d="M757,276L798,334L855,268Z" fill="#f8a430" stroke="#f8a430"/><path d="M855,268L798,334L931,297Z" fill="#f49b2a" stroke="#f49b2a"/><path d="M855,268L931,297L915,237Z" fill="#f0a131" stroke="#f0a131"/><path d="M915,237L931,297L1070,285Z" fill="#ea972b" stroke="#ea972b"/><path d="M1070,285L931,297L1033,416Z" fill="#e6811a" stroke="#e6811a"/><path d="M1070,285L1033,416L1101,397Z" fill="#db7217" stroke="#db7217"/><path d="M1070,285L1101,397L1135,355Z" fill="#d57419" stroke="#d57419"/><path d="M1070,285L1135,355L1203,268Z" fill="#ce7f22" stroke="#ce7f22"/><path d="M1070,285L1203,268L1118,200Z" fill="#cf8f30" stroke="#cf8f30"/><path d="M1203,268L1135,355L1243,396Z" fill="#c36e1a" stroke="#c36e1a"/><path d="M1203,268L1243,396L1289,344Z" fill="#b96a1b" stroke="#b96a1b"/><path d="M1203,268L1289,344L1376,261Z" fill="#b17426" stroke="#b17426"/><path d="M1376,261L1289,344L1335,345Z" fill="#a96820" stroke="#a96820"/><path d="M1376,261L1335,345L1448,398Z" fill="#9f5e1b" stroke="#9f5e1b"/><path d="M1376,261L1448,398L1464,252Z" fill="#976424" stroke="#976424"/><path d="M1464,252L1448,398L1500,424Z" fill="#8f531a" stroke="#8f531a"/><path d="M-91,329L-83,795L-58,545Z" fill="#dd9f8e" stroke="#dd9f8e"/><path d="M-91,329L-58,545L2,460Z" fill="#fdba8a" stroke="#fdba8a"/><path d="M-91,329L2,460L4,326Z" fill="#ffcf8b" stroke="#ffcf8b"/><path d="M4,326L2,460L150,403Z" fill="#ffc67f" stroke="#ffc67f"/><path d="M150,403L2,460L41,495Z" fill="#fcb67c" stroke="#fcb67c"/><path d="M150,403L41,495L96,499Z" fill="#fbb279" stroke="#fbb279"/><path d="M150,403L96,499L153,412Z" fill="#fdb974" stroke="#fdb974"/><path d="M150,403L153,412L203,429Z" fill="#ffbe70" stroke="#ffbe70"/><path d="M150,403L203,429L219,373Z" fill="#ffc06e" stroke="#ffc06e"/><path d="M219,373L203,429L342,411Z" fill="#ffbc65" stroke="#ffbc65"/><path d="M371,400L342,411L459,478Z" fill="#feab50" stroke="#feab50"/><path d="M371,400L459,478L498,393Z" fill="#fea846" stroke="#fea846"/><path d="M498,393L459,478L566,485Z" fill="#fc9b39" stroke="#fc9b39"/><path d="M498,393L566,485L658,396Z" fill="#fe9932" stroke="#fe9932"/><path d="M498,393L658,396L526,324Z" fill="#ffaa37" stroke="#ffaa37"/><path d="M526,324L658,396L616,300Z" fill="#ffae35" stroke="#ffae35"/><path d="M761,384L658,396L748,418Z" fill="#fc8d24" stroke="#fc8d24"/><path d="M761,384L748,418L837,423Z" fill="#f98420" stroke="#f98420"/><path d="M761,384L837,423L798,334Z" fill="#f88a22" stroke="#f88a22"/><path d="M798,334L837,423L931,297Z" fill="#f58c20" stroke="#f58c20"/><path d="M931,297L837,423L961,488Z" fill="#ef7719" stroke="#ef7719"/><path d="M931,297L961,488L1033,416Z" fill="#e97116" stroke="#e97116"/><path d="M1101,397L1033,416L1167,478Z" fill="#d45c13" stroke="#d45c13"/><path d="M1101,397L1167,478L1135,355Z" fill="#ce5e14" stroke="#ce5e14"/><path d="M1135,355L1167,478L1243,396Z" fill="#c65a14" stroke="#c65a14"/><path d="M1289,344L1243,396L1335,345Z" fill="#b15f19" stroke="#b15f19"/><path d="M1335,345L1243,396L1384,423Z" fill="#ab5417" stroke="#ab5417"/><path d="M1335,345L1384,423L1448,398Z" fill="#9e4e17" stroke="#9e4e17"/><path d="M1448,398L1384,423L1500,424Z" fill="#944215" stroke="#944215"/><path d="M2,460L-58,545L41,495Z" fill="#f7ac85" stroke="#f7ac85"/><path d="M41,495L-58,545L-33,616Z" fill="#dfa086" stroke="#dfa086"/><path d="M41,495L-33,616L92,575Z" fill="#db9d80" stroke="#db9d80"/><path d="M41,495L92,575L96,499Z" fill="#eda57b" stroke="#eda57b"/><path d="M153,412L96,499L203,429Z" fill="#fdb672" stroke="#fdb672"/><path d="M203,429L96,499L248,574Z" fill="#f7a76e" stroke="#f7a76e"/><path d="M203,429L248,574L327,555Z" fill="#ee9e64" stroke="#ee9e64"/><path d="M203,429L327,555L342,411Z" fill="#fbaa60" stroke="#fbaa60"/><path d="M342,411L327,555L459,478Z" fill="#fa9f53" stroke="#fa9f53"/><path d="M459,478L327,555L445,583Z" fill="#e58f4c" stroke="#e58f4c"/><path d="M459,478L445,583L566,485Z" fill="#f08c3c" stroke="#f08c3c"/><path d="M566,485L445,583L593,535Z" fill="#e78336" stroke="#e78336"/><path d="M566,485L593,535L658,396Z" fill="#fa892e" stroke="#fa892e"/><path d="M658,396L593,535L696,540Z" fill="#f97f29" stroke="#f97f29"/><path d="M658,396L696,540L748,418Z" fill="#fa8225" stroke="#fa8225"/><path d="M748,418L696,540L787,589Z" fill="#ec6d22" stroke="#ec6d22"/><path d="M748,418L787,589L837,423Z" fill="#f4711f" stroke="#f4711f"/><path d="M837,423L787,589L882,579Z" fill="#e05f1c" stroke="#e05f1c"/><path d="M837,423L882,579L961,488Z" fill="#ea6019" stroke="#ea6019"/><path d="M961,488L882,579L919,594Z" fill="#ce5018" stroke="#ce5018"/><path d="M961,488L919,594L1008,511Z" fill="#d45015" stroke="#d45015"/><path d="M961,488L1008,511L1033,416Z" fill="#e25b13" stroke="#e25b13"/><path d="M1033,416L1008,511L1167,478Z" fill="#d75513" stroke="#d75513"/><path d="M1167,478L1008,511L1119,604Z" fill="#bf4313" stroke="#bf4313"/><path d="M1167,478L1119,604L1300,518Z" fill="#ab3a14" stroke="#ab3a14"/><path d="M1167,478L1300,518L1243,396Z" fill="#b84714" stroke="#b84714"/><path d="M1243,396L1300,518L1384,423Z" fill="#ab4515" stroke="#ab4515"/><path d="M1384,423L1300,518L1353,518Z" fill="#a13715" stroke="#a13715"/><path d="M1384,423L1353,518L1400,553Z" fill="#993115" stroke="#993115"/><path d="M1384,423L1400,553L1500,424Z" fill="#933515" stroke="#933515"/><path d="M1500,424L1400,553L1466,615Z" fill="#7c2515" stroke="#7c2515"/><path d="M1500,424L1466,615L1482,722Z" fill="#5c1916" stroke="#5c1916"/><path d="M-58,545L-83,795L-33,616Z" fill="#b18a8b" stroke="#b18a8b"/><path d="M92,575L-33,616L72,677Z" fill="#bf8f7f" stroke="#bf8f7f"/><path d="M92,575L72,677L168,619Z" fill="#be8e77" stroke="#be8e77"/><path d="M92,575L168,619L96,499Z" fill="#da9a76" stroke="#da9a76"/><path d="M96,499L168,619L248,574Z" fill="#da996f" stroke="#da996f"/><path d="M248,574L168,619L246,656Z" fill="#c28b69" stroke="#c28b69"/><path d="M248,574L246,656L327,555Z" fill="#cb8d62" stroke="#cb8d62"/><path d="M327,555L246,656L380,636Z" fill="#c2855d" stroke="#c2855d"/><path d="M327,555L380,636L416,602Z" fill="#ca8453" stroke="#ca8453"/><path d="M327,555L416,602L445,583Z" fill="#d2864f" stroke="#d2864f"/><path d="M445,583L416,602L543,696Z" fill="#bc7541" stroke="#bc7541"/><path d="M445,583L543,696L593,535Z" fill="#c77437" stroke="#c77437"/><path d="M593,535L543,696L635,642Z" fill="#be6730" stroke="#be6730"/><path d="M593,535L635,642L696,540Z" fill="#d66d2a" stroke="#d66d2a"/><path d="M696,540L635,642L787,589Z" fill="#cc6124" stroke="#cc6124"/><path d="M787,589L635,642L794,646Z" fill="#ba5522" stroke="#ba5522"/><path d="M787,589L794,646L882,579Z" fill="#bf4f1d" stroke="#bf4f1d"/><path d="M882,579L794,646L902,617Z" fill="#b8491b" stroke="#b8491b"/><path d="M882,579L902,617L919,594Z" fill="#bc4919" stroke="#bc4919"/><path d="M919,594L902,617L945,698Z" fill="#a83d18" stroke="#a83d18"/><path d="M919,594L945,698L1061,646Z" fill="#9e3615" stroke="#9e3615"/><path d="M919,594L1061,646L1008,511Z" fill="#b94114" stroke="#b94114"/><path d="M1008,511L1061,646L1119,604Z" fill="#ac3a13" stroke="#ac3a13"/><path d="M1119,604L1061,646L1182,694Z" fill="#852713" stroke="#852713"/><path d="M1119,604L1182,694L1251,666Z" fill="#762014" stroke="#762014"/><path d="M1119,604L1251,666L1300,518Z" fill="#8a2914" stroke="#8a2914"/><path d="M1300,518L1251,666L1383,673Z" fill="#6e1c15" stroke="#6e1c15"/><path d="M1300,518L1383,673L1400,553Z" fill="#762015" stroke="#762015"/><path d="M1300,518L1400,553L1353,518Z" fill="#902d15" stroke="#902d15"/><path d="M1400,553L1383,673L1466,615Z" fill="#5d1415" stroke="#5d1415"/><path d="M-33,616L-83,795L72,677Z" fill="#9d8086" stroke="#9d8086"/><path d="M72,677L-83,795L63,777Z" fill="#847f82" stroke="#847f82"/><path d="M72,677L63,777L102,721Z" fill="#907e7b" stroke="#907e7b"/><path d="M72,677L102,721L168,619Z" fill="#a88376" stroke="#a88376"/><path d="M168,619L102,721L246,656Z" fill="#ab836f" stroke="#ab836f"/><path d="M246,656L102,721L237,792Z" fill="#917a6c" stroke="#917a6c"/><path d="M246,656L237,792L335,709Z" fill="#927662" stroke="#927662"/><path d="M246,656L335,709L380,636Z" fill="#aa795c" stroke="#aa795c"/><path d="M380,636L335,709L452,756Z" fill="#9b6d50" stroke="#9b6d50"/><path d="M380,636L452,756L416,602Z" fill="#ab724b" stroke="#ab724b"/><path d="M416,602L452,756L543,696Z" fill="#a26840" stroke="#a26840"/><path d="M543,696L452,756L602,777Z" fill="#875f36" stroke="#875f36"/><path d="M543,696L602,777L636,730Z" fill="#8b572f" stroke="#8b572f"/><path d="M543,696L636,730L635,642Z" fill="#a0572e" stroke="#a0572e"/><path d="M635,642L636,730L735,741Z" fill="#994d27" stroke="#994d27"/><path d="M635,642L735,741L794,646Z" fill="#a34c23" stroke="#a34c23"/><path d="M794,646L735,741L839,731Z" fill="#923f1f" stroke="#923f1f"/><path d="M794,646L839,731L902,617Z" fill="#a23f1c" stroke="#a23f1c"/><path d="M902,617L839,731L945,698Z" fill="#953619" stroke="#953619"/><path d="M945,698L839,731L962,780Z" fill="#7a3118" stroke="#7a3118"/><path d="M945,698L962,780L1003,729Z" fill="#752b15" stroke="#752b15"/><path d="M945,698L1003,729L1061,646Z" fill="#872913" stroke="#872913"/><path d="M1061,646L1003,729L1182,708Z" fill="#772013" stroke="#772013"/><path d="M1061,646L1182,708L1182,694Z" fill="#711d14" stroke="#711d14"/><path d="M1182,694L1182,708L1251,666Z" fill="#621614" stroke="#621614"/><path d="M1251,666L1182,708L1278,802Z" fill="#4c1214" stroke="#4c1214"/><path d="M1251,666L1278,802L1383,673Z" fill="#440b14" stroke="#440b14"/><path d="M1383,673L1278,802L1401,735Z" fill="#300715" stroke="#300715"/><path d="M1383,673L1401,735L1482,722Z" fill="#2f0115" stroke="#2f0115"/><path d="M1383,673L1482,722L1466,615Z" fill="#3e0615" stroke="#3e0615"/><path d="M-83,795L1278,802L237,792Z" fill="#7f653f" stroke="#7f653f"/><path d="M-83,795L237,792L63,777Z" fill="#807e7b" stroke="#807e7b"/><path d="M63,777L237,792L102,721Z" fill="#807d74" stroke="#807d74"/><path d="M237,792L1278,802L602,777Z" fill="#7e4924" stroke="#7e4924"/><path d="M237,792L602,777L452,756Z" fill="#7f6948" stroke="#7f6948"/><path d="M237,792L452,756L335,709Z" fill="#837159" stroke="#837159"/><path d="M602,777L1278,802L962,780Z" fill="#6c2d16" stroke="#6c2d16"/><path d="M602,777L962,780L735,741Z" fill="#7a4221" stroke="#7a4221"/><path d="M602,777L735,741L636,730Z" fill="#844f28" stroke="#844f28"/><path d="M735,741L962,780L839,731Z" fill="#7b381c" stroke="#7b381c"/><path d="M962,780L1278,802L1182,708Z" fill="#4e1a14" stroke="#4e1a14"/><path d="M962,780L1182,708L1003,729Z" fill="#692313" stroke="#692313"/><path d="M1278,802L1482,722L1401,735Z" fill="#220415" stroke="#220415"/></g></svg>