<svg width="1366" height="657" xmlns="http://www.w3.org/2000/svg"><g><path d="M-61,-45L-118,26L56,120Z" fill="#e73e2f" stroke="#e73e2f"/><path d="M-61,-45L56,120L63,-113Z" fill="#ed322a" stroke="#ed322a"/><path d="M63,-113L56,120L214,-64Z" fill="#f64230" stroke="#f64230"/><path d="M63,-113L214,-64L368,-104Z" fill="#fc4429" stroke="#fc4429"/><path d="M63,-113L368,-104L556,-109Z" fill="#fe5b34" stroke="#fe5b34"/><path d="M214,-64L56,120L237,59Z" fill="#fa6a43" stroke="#fa6a43"/><path d="M214,-64L237,59L368,-104Z" fill="#fd5b3c" stroke="#fd5b3c"/><path d="M368,-104L237,59L328,90Z" fill="#fe7c4c" stroke="#fe7c4c"/><path d="M368,-104L328,90L503,37Z" fill="#ff8857" stroke="#ff8857"/><path d="M368,-104L503,37L556,-109Z" fill="#ff7253" stroke="#ff7253"/><path d="M556,-109L503,37L656,35Z" fill="#ff936e" stroke="#ff936e"/><path d="M556,-109L656,35L732,-76Z" fill="#fa8164" stroke="#fa8164"/><path d="M556,-109L732,-76L1034,-64Z" fill="#ea7748" stroke="#ea7748"/><path d="M556,-109L1034,-64L1251,-83Z" fill="#cb6937" stroke="#cb6937"/><path d="M556,-109L1251,-83L1443,-89Z" fill="#ae5c31" stroke="#ae5c31"/><path d="M732,-76L656,35L791,91Z" fill="#f09e66" stroke="#f09e66"/><path d="M732,-76L791,91L833,-33Z" fill="#e88f58" stroke="#e88f58"/><path d="M732,-76L833,-33L1034,-64Z" fill="#da7044" stroke="#da7044"/><path d="M833,-33L791,91L929,129Z" fill="#ddad61" stroke="#ddad61"/><path d="M833,-33L929,129L1034,-64Z" fill="#ce8d4e" stroke="#ce8d4e"/><path d="M1034,-64L929,129L1111,-22Z" fill="#bb864d" stroke="#bb864d"/><path d="M1034,-64L1111,-22L1251,-83Z" fill="#a15737" stroke="#a15737"/><path d="M1111,-22L929,129L1146,100Z" fill="#b39e59" stroke="#b39e59"/><path d="M1111,-22L1146,100L1251,-83Z" fill="#986d42" stroke="#986d42"/><path d="M1251,-83L1146,100L1282,96Z" fill="#8a7a47" stroke="#8a7a47"/><path d="M1251,-83L1282,96L1428,38Z" fill="#80643d" stroke="#80643d"/><path d="M1251,-83L1428,38L1443,-89Z" fill="#803f2b" stroke="#803f2b"/><path d="M1443,-89L1428,38L1627,-34Z" fill="#803827" stroke="#803827"/><path d="M1627,-34L1428,38L1566,119Z" fill="#805634" stroke="#805634"/><path d="M1627,-34L1566,119L1576,165Z" fill="#80653b" stroke="#80653b"/><path d="M1627,-34L1576,165L1603,645Z" fill="#809c74" stroke="#809c74"/><path d="M-118,26L-124,779L-93,421Z" fill="#d08150" stroke="#d08150"/><path d="M-118,26L-93,421L-50,227Z" fill="#e38661" stroke="#e38661"/><path d="M-118,26L-50,227L56,120Z" fill="#e86d45" stroke="#e86d45"/><path d="M56,120L-50,227L108,206Z" fill="#ef945e" stroke="#ef945e"/><path d="M56,120L108,206L237,59Z" fill="#f89156" stroke="#f89156"/><path d="M237,59L108,206L251,216Z" fill="#fbad65" stroke="#fbad65"/><path d="M237,59L251,216L328,90Z" fill="#fdab61" stroke="#fdab61"/><path d="M328,90L251,216L376,185Z" fill="#fec772" stroke="#fec772"/><path d="M328,90L376,185L503,37Z" fill="#ffb96e" stroke="#ffb96e"/><path d="M503,37L376,185L573,246Z" fill="#ffde88" stroke="#ffde88"/><path d="M503,37L573,246L651,192Z" fill="#ffe898" stroke="#ffe898"/><path d="M503,37L651,192L656,35Z" fill="#ffc88b" stroke="#ffc88b"/><path d="M656,35L651,192L791,91Z" fill="#f4cd80" stroke="#f4cd80"/><path d="M791,91L651,192L786,200Z" fill="#eee587" stroke="#eee587"/><path d="M791,91L786,200L929,129Z" fill="#dfd775" stroke="#dfd775"/><path d="M929,129L786,200L930,267Z" fill="#d8e884" stroke="#d8e884"/><path d="M929,129L930,267L1116,241Z" fill="#c2e384" stroke="#c2e384"/><path d="M929,129L1116,241L1146,100Z" fill="#b2ca6f" stroke="#b2ca6f"/><path d="M1146,100L1116,241L1251,198Z" fill="#98c470" stroke="#98c470"/><path d="M1146,100L1251,198L1282,96Z" fill="#8aab5d" stroke="#8aab5d"/><path d="M1282,96L1251,198L1400,167Z" fill="#80aa5e" stroke="#80aa5e"/><path d="M1282,96L1400,167L1428,38Z" fill="#80894d" stroke="#80894d"/><path d="M1428,38L1400,167L1566,119Z" fill="#808149" stroke="#808149"/><path d="M1566,119L1400,167L1576,165Z" fill="#809150" stroke="#809150"/><path d="M-50,227L-93,421L98,400Z" fill="#ea956c" stroke="#ea956c"/><path d="M-50,227L98,400L108,206Z" fill="#f0a285" stroke="#f0a285"/><path d="M108,206L98,400L175,324Z" fill="#f7b18a" stroke="#f7b18a"/><path d="M108,206L175,324L251,216Z" fill="#fbbc84" stroke="#fbbc84"/><path d="M251,216L175,324L327,359Z" fill="#fdcb9a" stroke="#fdcb9a"/><path d="M251,216L327,359L376,185Z" fill="#fed994" stroke="#fed994"/><path d="M376,185L327,359L487,375Z" fill="#ffe6aa" stroke="#ffe6aa"/><path d="M376,185L487,375L573,246Z" fill="#fff2b2" stroke="#fff2b2"/><path d="M573,246L487,375L619,402Z" fill="#fffab5" stroke="#fffab5"/><path d="M573,246L619,402L651,192Z" fill="#feffcc" stroke="#feffcc"/><path d="M651,192L619,402L786,200Z" fill="#f5fbb9" stroke="#f5fbb9"/><path d="M786,200L619,402L864,361Z" fill="#edf7ac" stroke="#edf7ac"/><path d="M786,200L864,361L930,267Z" fill="#dbf0a6" stroke="#dbf0a6"/><path d="M930,267L864,361L1034,405Z" fill="#cce991" stroke="#cce991"/><path d="M930,267L1034,405L1126,331Z" fill="#bae192" stroke="#bae192"/><path d="M930,267L1126,331L1116,241Z" fill="#b4df9f" stroke="#b4df9f"/><path d="M1116,241L1126,331L1251,198Z" fill="#99d28e" stroke="#99d28e"/><path d="M1251,198L1126,331L1221,383Z" fill="#90ce96" stroke="#90ce96"/><path d="M1251,198L1221,383L1388,336Z" fill="#80c390" stroke="#80c390"/><path d="M1251,198L1388,336L1400,167Z" fill="#80bc79" stroke="#80bc79"/><path d="M1400,167L1388,336L1576,165Z" fill="#80ae6e" stroke="#80ae6e"/><path d="M1576,165L1388,336L1547,433Z" fill="#80a880" stroke="#80a880"/><path d="M1576,165L1547,433L1603,645Z" fill="#6ca057" stroke="#6ca057"/><path d="M-93,421L-124,779L-79,644Z" fill="#625635" stroke="#625635"/><path d="M-93,421L-79,644L-36,525Z" fill="#977545" stroke="#977545"/><path d="M-93,421L-36,525L98,400Z" fill="#c89451" stroke="#c89451"/><path d="M98,400L-36,525L103,475Z" fill="#c59d56" stroke="#c59d56"/><path d="M98,400L103,475L175,324Z" fill="#eab169" stroke="#eab169"/><path d="M175,324L103,475L248,564Z" fill="#d5b862" stroke="#d5b862"/><path d="M175,324L248,564L327,359Z" fill="#e9cb70" stroke="#e9cb70"/><path d="M327,359L248,564L422,491Z" fill="#d0d472" stroke="#d0d472"/><path d="M327,359L422,491L487,375Z" fill="#eee987" stroke="#eee987"/><path d="M487,375L422,491L466,509Z" fill="#d8ec84" stroke="#d8ec84"/><path d="M487,375L466,509L619,402Z" fill="#e6f793" stroke="#e6f793"/><path d="M619,402L466,509L638,500Z" fill="#d2f597" stroke="#d2f597"/><path d="M619,402L638,500L800,535Z" fill="#c3f38f" stroke="#c3f38f"/><path d="M619,402L800,535L864,361Z" fill="#d1f786" stroke="#d1f786"/><path d="M864,361L800,535L1027,543Z" fill="#a3e573" stroke="#a3e573"/><path d="M864,361L1027,543L1034,405Z" fill="#a9e673" stroke="#a9e673"/><path d="M1034,405L1027,543L1184,526Z" fill="#75d16d" stroke="#75d16d"/><path d="M1034,405L1184,526L1221,383Z" fill="#81d46b" stroke="#81d46b"/><path d="M1034,405L1221,383L1126,331Z" fill="#a0d67f" stroke="#a0d67f"/><path d="M1221,383L1184,526L1301,531Z" fill="#55c163" stroke="#55c163"/><path d="M1221,383L1301,531L1388,336Z" fill="#6cc168" stroke="#6cc168"/><path d="M1388,336L1301,531L1436,488Z" fill="#5cb55d" stroke="#5cb55d"/><path d="M1388,336L1436,488L1547,433Z" fill="#6bae5d" stroke="#6bae5d"/><path d="M1547,433L1436,488L1526,579Z" fill="#439c52" stroke="#439c52"/><path d="M1547,433L1526,579L1603,645Z" fill="#248647" stroke="#248647"/><path d="M-36,525L-79,644L96,668Z" fill="#6c693e" stroke="#6c693e"/><path d="M-36,525L96,668L103,475Z" fill="#93864d" stroke="#93864d"/><path d="M103,475L96,668L248,564Z" fill="#949553" stroke="#949553"/><path d="M248,564L96,668L272,686Z" fill="#7c8c4e" stroke="#7c8c4e"/><path d="M248,564L272,686L426,626Z" fill="#7fa75b" stroke="#7fa75b"/><path d="M248,564L426,626L422,491Z" fill="#9ec36c" stroke="#9ec36c"/><path d="M422,491L426,626L466,509Z" fill="#a9d479" stroke="#a9d479"/><path d="M466,509L426,626L564,674Z" fill="#86c877" stroke="#86c877"/><path d="M466,509L564,674L638,500Z" fill="#9fdc8a" stroke="#9fdc8a"/><path d="M638,500L564,674L634,671Z" fill="#7fd089" stroke="#7fd089"/><path d="M638,500L634,671L766,650Z" fill="#7bcf7f" stroke="#7bcf7f"/><path d="M638,500L766,650L800,535Z" fill="#8eda7d" stroke="#8eda7d"/><path d="M800,535L766,650L948,650Z" fill="#60c468" stroke="#60c468"/><path d="M800,535L948,650L1027,543Z" fill="#66c866" stroke="#66c866"/><path d="M1027,543L948,650L1137,665Z" fill="#39b15c" stroke="#39b15c"/><path d="M1027,543L1137,665L1184,526Z" fill="#3bb55f" stroke="#3bb55f"/><path d="M1184,526L1137,665L1295,620Z" fill="#15a255" stroke="#15a255"/><path d="M1184,526L1295,620L1301,531Z" fill="#22a959" stroke="#22a959"/><path d="M1301,531L1295,620L1462,637Z" fill="#0b924d" stroke="#0b924d"/><path d="M1301,531L1462,637L1436,488Z" fill="#259a51" stroke="#259a51"/><path d="M1436,488L1462,637L1526,579Z" fill="#1b8c4a" stroke="#1b8c4a"/><path d="M1526,579L1462,637L1603,645Z" fill="#00753e" stroke="#00753e"/><path d="M-79,644L-124,779L24,828Z" fill="#663524" stroke="#663524"/><path d="M-79,644L24,828L96,668Z" fill="#6d4e30" stroke="#6d4e30"/><path d="M96,668L24,828L242,861Z" fill="#774e2e" stroke="#774e2e"/><path d="M96,668L242,861L272,686Z" fill="#7c6e3e" stroke="#7c6e3e"/><path d="M272,686L242,861L332,877Z" fill="#7e6a3b" stroke="#7e6a3b"/><path d="M272,686L332,877L426,626Z" fill="#7f8c4f" stroke="#7f8c4f"/><path d="M426,626L332,877L585,766Z" fill="#7f9559" stroke="#7f9559"/><path d="M426,626L585,766L564,674Z" fill="#7fb271" stroke="#7fb271"/><path d="M564,674L585,766L634,671Z" fill="#80b57a" stroke="#80b57a"/><path d="M634,671L585,766L706,784Z" fill="#7ba971" stroke="#7ba971"/><path d="M634,671L706,784L766,650Z" fill="#74b26c" stroke="#74b26c"/><path d="M766,650L706,784L789,793Z" fill="#6da35d" stroke="#6da35d"/><path d="M766,650L789,793L948,650Z" fill="#60aa5b" stroke="#60aa5b"/><path d="M948,650L789,793L968,828Z" fill="#55944a" stroke="#55944a"/><path d="M948,650L968,828L1137,665Z" fill="#3d964e" stroke="#3d964e"/><path d="M1137,665L968,828L1091,855Z" fill="#337d42" stroke="#337d42"/><path d="M1137,665L1091,855L1290,797Z" fill="#18733d" stroke="#18733d"/><path d="M1137,665L1290,797L1295,620Z" fill="#078345" stroke="#078345"/><path d="M1295,620L1290,797L1432,809Z" fill="#006837" stroke="#006837"/><path d="M1295,620L1432,809L1462,637Z" fill="#00713c" stroke="#00713c"/><path d="M1462,637L1432,809L1577,812Z" fill="#00522c" stroke="#00522c"/><path d="M1462,637L1577,812L1603,645Z" fill="#005c31" stroke="#005c31"/><path d="M24,828L332,877L242,861Z" fill="#7c492b" stroke="#7c492b"/><path d="M332,877L1091,855L968,828Z" fill="#667e47" stroke="#667e47"/><path d="M332,877L968,828L789,793Z" fill="#758b59" stroke="#758b59"/><path d="M332,877L789,793L706,784Z" fill="#80946a" stroke="#80946a"/><path d="M332,877L706,784L585,766Z" fill="#808f60" stroke="#808f60"/><path d="M1091,855L1577,812L1432,809Z" fill="#004c28" stroke="#004c28"/><path d="M1091,855L1432,809L1290,797Z" fill="#00592f" stroke="#00592f"/></g></svg>